# xmcd
#
# Track frame offsets:
#	150
#	15408
#	27866
#	45467
#	59443
#	75071
#	92858
#
# Disc length: 1436 seconds
# Revision: 0
# Processed by: cddbd v1.5.2PL0 Copyright (c) Steve Scherf et al.
# Submitted via: dBpowerAMP V12.0
#
DISCID=41059a07
DTITLE=Jim Brickman - Exclusive Music Sampler
DYEAR=2008
DGENRE=New Age
TTITLE0=Simple Things
TTITLE1=Angel Eyes
TTITLE2=The Gift
TTITLE3=If You Believe
TTITLE4=Grace Medley
TTITLE5=Peace
TTITLE6=What Are You Doing/Auld Lang Syne
EXTD=
EXTT0=
EXTT1=
EXTT2=
EXTT3=
EXTT4=
EXTT5=
EXTT6=
PLAYORDER=
